Coordinates
version=1
nRows=7
nColumns=63
inDegrees=yes

Units are S.I. units (second, meters, Newtons, ...)
If the header above contains a line with 'inDegrees', this indicates whether rotational values are in degrees (yes) or radians (no).

endheader
time	pelvis_tilt	pelvis_list	pelvis_rotation	pelvis_tx	pelvis_ty	pelvis_tz	hip_flexion_r	hip_adduction_r	hip_rotation_r	knee_angle_r	knee_angle_r_beta	ankle_angle_r	subtalar_angle_r	mtp_angle_r	hip_flexion_l	hip_adduction_l	hip_rotation_l	knee_angle_l	knee_angle_l_beta	ankle_angle_l	subtalar_angle_l	mtp_angle_l	L5_S1_Flex_Ext	L5_S1_Lat_Bending	L5_S1_axial_rotation	L4_L5_Flex_Ext	L4_L5_Lat_Bending	L4_L5_axial_rotation	L3_L4_Flex_Ext	L3_L4_Lat_Bending	L3_L4_axial_rotation	L2_L3_Flex_Ext	L2_L3_Lat_Bending	L2_L3_axial_rotation	L1_L2_Flex_Ext	L1_L2_Lat_Bending	L1_L2_axial_rotation	L1_T12_Flex_Ext	L1_T12_Lat_Bending	L1_T12_axial_rotation	Abs_r3	Abs_r2	Abs_r1	Abs_t1	Abs_t2	neck_flexion	neck_bending	neck_rotation	arm_flex_r	arm_add_r	arm_rot_r	elbow_flex_r	pro_sup_r	wrist_flex_r	wrist_dev_r	arm_flex_l	arm_add_l	arm_rot_l	elbow_flex_l	pro_sup_l	wrist_flex_l	wrist_dev_l
      0.00000000	      9.83509493	      4.33446764	   -172.99643569	      0.62899227	      0.79857856	      0.27313189	     30.59032277	      4.07598711	     -1.57241636	     19.01857506	      0.33193675	      2.94625916	    -15.44654700	      0.00000000	     -8.45356518	     -2.56417353	      0.50678837	     11.38619896	      0.19872666	     27.06487445	     12.73859893	      0.00000000	      0.13027747	      0.32060157	     -0.85177104	      0.24193829	      0.42640009	     -0.90500673	      0.21403285	      0.77951066	     -0.90500673	      0.14889412	      0.77951066	     -0.74529966	      0.12097566	      0.65377072	     -0.69206397	      0.07444055	      0.49661183	     -0.63882828	      0.93055893	      3.62670908	     -4.73729502	      0.00000000	      0.00000000	      0.00000000	      0.00000000	      0.00000001	    -11.70514547	     -7.57093062	     -4.36508862	     38.12334473	     73.71026114	      0.00000000	      4.84092849	     -3.46401055	     -5.00895632	      4.81787847	     27.59424929	     73.98306380	      0.00000000	      4.84092849
      0.03333330	      9.98633473	      5.23970327	   -175.15108743	      0.62350935	      0.80403140	      0.26743616	     31.90296853	      6.46303575	      1.11385464	     22.78943289	      0.39775064	      4.31392535	    -16.23098264	      0.00000000	     -8.13179455	     -2.94856071	      2.54125857	     15.43636430	      0.26941538	     31.62511738	     10.00794623	      0.00000000	      0.13844779	      0.42698424	     -0.62391478	      0.25711139	      0.56788904	     -0.66290946	      0.22745587	      1.03816949	     -0.66290946	      0.15823198	      1.03816949	     -0.54592544	      0.12856262	      0.87070627	     -0.50693076	      0.07910907	      0.66139859	     -0.46793609	      0.98891870	      4.83013117	     -3.47002685	      0.00000000	      0.00000000	      0.00000000	      0.00000000	      0.00000001	    -12.02432710	     -8.56657497	     -6.02339360	     38.41892234	     73.70236353	      0.00000000	      4.84748241	     -4.24689271	     -4.88156941	      2.79845770	     28.18736860	     73.66664563	      0.00000000	      4.84748241
      0.06666670	      9.67976503	      5.85584855	   -176.23671389	      0.61964200	      0.80630470	      0.26417801	     31.35786996	      7.91913931	      2.24502751	     24.29306852	      0.42399403	      5.21620965	    -16.86480344	      0.00000000	     -7.07383741	     -4.19225827	      0.60267266	     20.71161038	      0.36148579	     33.46163166	     11.85460429	      0.00000000	      0.11869869	      0.55521567	     -0.50464494	      0.22043534	      0.73843684	     -0.53618525	      0.19501008	      1.34995138	     -0.53618525	      0.13566074	      1.34995138	     -0.44156432	      0.11022361	      1.13219579	     -0.41002402	      0.06782443	      0.86002907	     -0.37848371	      0.84785290	      6.28071069	     -2.80668377	      0.00000000	      0.00000000	      0.00000000	      0.00000000	      0.00000001	    -12.49372921	     -9.57679888	     -8.63715897	     40.19323760	     73.93433678	      0.00000000	      4.85916530	     -5.21743106	     -4.35525763	     -0.39948575	     29.20071499	     73.42660298	      0.00000000	      4.85916530
      0.10000000	      9.49071568	      6.47876157	   -176.80209339	      0.61739785	      0.80834854	      0.26145856	     30.27422920	      9.12563601	      2.51919352	     25.04712374	      0.43715478	      6.83815568	    -17.50462530	      0.00000000	     -4.64352618	     -5.68830577	     -1.05562094	     27.59228318	      0.48157619	     34.62094468	     12.72491019	      0.00000000	      0.11733613	      0.66998788	     -0.35294638	      0.21790492	      0.89108388	     -0.37500553	      0.19277152	      1.62900853	     -0.37500553	      0.13410346	      1.62900853	     -0.30882808	      0.10895833	      1.36623928	     -0.28676894	      0.06704586	      1.03781123	     -0.26470979	      0.83812022	      7.57903689	     -1.96298189	      0.00000000	      0.00000000	      0.00000000	      0.00000000	      0.00000001	    -12.43972824	    -10.68959890	     -9.02900932	     40.22832509	     74.20040812	      0.00000000	      4.86432963	     -5.48936596	     -4.00457564	     -1.26425413	     29.33788795	     73.46750685	      0.00000000	      4.86432963
      0.13333330	      9.28176999	      7.08103485	   -177.26564201	      0.61635935	      0.81042742	      0.25894120	     28.82161157	     10.26902399	      3.12890184	     25.41143591	      0.44351322	      8.99455288	    -17.89609749	      0.00000000	     -1.10637590	     -7.33582047	     -2.29957062	     35.17618921	      0.61394032	     35.88100080	     13.59616039	      0.00000000	      0.10505317	      0.76893043	     -0.18479988	      0.19509424	      1.02267747	     -0.19634987	      0.17259185	      1.86957745	     -0.19634987	      0.12006527	      1.86957745	     -0.16169989	      0.09755237	      1.56800293	     -0.15014990	      0.06002738	      1.19107323	     -0.13859991	      0.75038428	      8.69829480	     -1.02780148	      0.00000000	      0.00000000	      0.00000000	      0.00000000	      0.00000001	    -12.19799188	    -11.79174010	     -9.03289562	     40.27109469	     74.40281712	      0.00000000	      4.86811993	     -5.60732838	     -3.72850679	     -1.68967152	     29.29154932	     73.48545187	      0.00000000	      4.86811993
      0.16666670	      9.20293618	      7.59667432	   -177.55071693	      0.61617072	      0.81221478	      0.25666466	     27.21984151	     11.24428704	      3.65582648	     25.30601946	      0.44167336	     10.97527441	    -17.98868797	      0.00000000	      3.57776859	     -9.19654067	     -3.23184037	     43.21372222	      0.75422173	     37.44078866	     14.66344134	      0.00000000	      0.09583347	      0.86171373	     -0.04363571	      0.17797233	      1.14607926	     -0.04636294	      0.15744480	      2.09517076	     -0.04636294	      0.10952807	      2.09517076	     -0.03818124	      0.08899096	      1.75720663	     -0.03545401	      0.05475924	      1.33479456	     -0.03272678	      0.68452886	      9.74787803	     -0.24268872	      0.00000000	      0.00000000	      0.00000000	      0.00000000	      0.00000001	    -12.03184320	    -12.95878313	     -8.78325234	     41.06521894	     74.68365096	      0.00000000	      4.87518121	     -5.64376975	     -3.49924616	     -2.18616295	     29.26659900	     73.50052596	      0.00000000	      4.87518121
      0.20000000	      9.17161412	      7.97478596	   -177.79651228	      0.61634797	      0.81383422	      0.25449765	     25.39423266	     12.03905660	      4.24927483	     24.77504196	      0.43240605	     12.70844970	    -18.05039738	      0.00000000	      8.78630539	    -10.84767547	     -3.27400270	     50.77008216	      0.88610510	     38.80227633	     14.92911173	      0.00000000	      0.09835477	      0.92688727	      0.16930327	      0.18265464	      1.23276007	      0.17988472	      0.16158705	      2.25363370	      0.17988472	      0.11240967	      2.25363370	      0.14814036	      0.09133224	      1.89010852	      0.13755890	      0.05619992	      1.43574838	      0.12697745	      0.70253828	     10.48513416	      0.94161398	      0.00000000	      0.00000000	      0.00000000	      0.00000000	      0.00000001	    -11.82678388	    -14.01243937	     -8.59553268	     41.52050868	     74.74515316	      0.00000000	      4.88128433	     -5.45852136	     -3.33158558	     -2.42056205	     29.61079955	     73.44219820	      0.00000000	      4.88128433
